<?xml version="1.0" encoding="UTF-8" standalone="no"?>
<!-- Created with Inkscape (http://www.inkscape.org/) -->

<svg
   xmlns:dc="http://purl.org/dc/elements/1.1/"
   xmlns:cc="http://creativecommons.org/ns#"
   xmlns:rdf="http://www.w3.org/1999/02/22-rdf-syntax-ns#"
   xmlns:svg="http://www.w3.org/2000/svg"
   xmlns="http://www.w3.org/2000/svg"
   xmlns:sodipodi="http://sodipodi.sourceforge.net/DTD/sodipodi-0.dtd"
   xmlns:inkscape="http://www.inkscape.org/namespaces/inkscape"
   width="210mm"
   height="297mm"
   viewBox="0 0 744.09448819 1052.3622047"
   id="svg2"
   version="1.1"
   inkscape:version="0.91 r13725"
   sodipodi:docname="logotipo sensor rc.svg">
  <defs
     id="defs4" />
  <sodipodi:namedview
     id="base"
     pagecolor="#ffffff"
     bordercolor="#666666"
     borderopacity="1.0"
     inkscape:pageopacity="0.0"
     inkscape:pageshadow="2"
     inkscape:zoom="3.959798"
     inkscape:cx="177.98873"
     inkscape:cy="673.10252"
     inkscape:document-units="px"
     inkscape:current-layer="layer1"
     showgrid="false"
     showguides="true"
     inkscape:guide-bbox="true"
     inkscape:window-width="1855"
     inkscape:window-height="1056"
     inkscape:window-x="65"
     inkscape:window-y="24"
     inkscape:window-maximized="1">
    <sodipodi:guide
       position="181.60714,701.25002"
       orientation="0,1"
       id="guide3413" />
  </sodipodi:namedview>
  <metadata
     id="metadata7">
    <rdf:RDF>
      <cc:Work
         rdf:about="">
        <dc:format>image/svg+xml</dc:format>
        <dc:type
           rdf:resource="http://purl.org/dc/dcmitype/StillImage" />
        <dc:title></dc:title>
      </cc:Work>
    </rdf:RDF>
  </metadata>
  <g
     inkscape:label="Capa 1"
     inkscape:groupmode="layer"
     id="layer1">
    <g
       id="g3479">
      <flowRoot
         style="font-style:normal;font-weight:normal;font-size:40px;line-height:125%;font-family:sans-serif;letter-spacing:0px;word-spacing:0px;fill:#000000;fill-opacity:1;stroke:none;stroke-width:1px;stroke-linecap:butt;stroke-linejoin:miter;stroke-opacity:1"
         id="flowRoot3336"
         xml:space="preserve"><flowRegion
           id="flowRegion3338"><rect
             y="348.07648"
             x="132.85715"
             height="168.57143"
             width="369.28571"
             id="rect3340" /></flowRegion><flowPara
           style="-inkscape-font-specification:'EB Garamond';font-family:'EB Garamond';font-weight:normal;font-style:normal;font-stretch:normal;font-variant:normal"
           id="flowPara3342">Sens</flowPara></flowRoot>      <g
         id="g3345"
         transform="matrix(0.04038551,0,0,0.0409026,199.76986,365.96452)">
        <g
           id="g3347">
          <g
             id="g3349">
            <path
               id="path3351"
               d="m 256,85.333 c -94.104,0 -170.667,76.563 -170.667,170.667 0,94.104 76.563,170.667 170.667,170.667 94.104,0 170.667,-76.563 170.667,-170.667 C 426.667,161.896 350.104,85.333 256,85.333 Z m 87.313,63.75 c 1.917,-2.135 4.625,-3.396 7.5,-3.51 2.479,-0.281 5.667,0.927 7.75,2.906 22.125,20.948 37.167,47.615 43.458,77.115 1,4.708 -1.271,9.5 -5.542,11.708 -10.438,5.396 -22.833,8.01 -34.708,8.01 -15.479,0 -30.146,-4.438 -38.646,-12.938 -18.083,-18.072 -10.542,-49.207 20.188,-83.291 z m -174.625,215.5 c -1.917,2.135 -4.625,3.406 -7.5,3.521 -0.125,0.01 -0.271,0.01 -0.417,0.01 -2.729,0 -5.354,-1.042 -7.333,-2.917 -22.125,-20.948 -37.167,-47.615 -43.458,-77.125 -1,-4.708 1.271,-9.5 5.542,-11.708 24.042,-12.406 58.333,-10.094 73.354,4.927 18.062,18.074 10.52,49.209 -20.188,83.292 z m 20.187,-132.208 c -8.5,8.5 -23.167,12.938 -38.646,12.938 -11.875,0 -24.25,-2.615 -34.708,-8.01 -4.271,-2.208 -6.542,-7 -5.542,-11.708 6.292,-29.5 21.333,-56.167 43.458,-77.115 2.083,-1.979 5.146,-3.208 7.75,-2.906 2.875,0.115 5.583,1.375 7.5,3.51 30.73,34.083 38.271,65.218 20.188,83.291 z M 301.458,398.24 c -14.771,4.708 -30.063,7.094 -45.458,7.094 -15.395,0 -30.688,-2.385 -45.458,-7.094 -4.688,-1.5 -7.75,-6 -7.417,-10.906 C 205.792,348.948 228.521,320 256,320 c 27.479,0 50.208,28.948 52.875,67.333 0.333,4.907 -2.729,9.407 -7.417,10.907 z M 213.333,256 c 0,-23.531 19.146,-42.667 42.667,-42.667 23.521,0 42.667,19.135 42.667,42.667 0,23.532 -19.146,42.667 -42.667,42.667 -23.521,0 -42.667,-19.136 -42.667,-42.667 z m 95.542,-130.49 c -2.667,38.375 -25.396,67.323 -52.875,67.323 -27.479,0 -50.208,-28.948 -52.875,-67.323 -0.333,-4.906 2.708,-9.406 7.396,-10.896 29.542,-9.438 61.417,-9.438 90.958,0 4.688,1.49 7.729,5.99 7.396,10.896 z m 93.146,160.865 c -6.292,29.51 -21.333,56.177 -43.458,77.125 -1.979,1.875 -4.604,2.917 -7.333,2.917 -0.146,0 -0.292,0 -0.417,-0.01 -2.875,-0.115 -5.583,-1.375 -7.5,-3.51 -30.729,-34.083 -38.271,-65.229 -20.188,-83.302 15.021,-15.031 49.292,-17.313 73.354,-4.927 4.271,2.207 6.542,6.999 5.542,11.707 z"
               inkscape:connector-curvature="0"
               style="fill:#ffcc00" />
            <path
               id="path3353"
               d="M 256,0 C 114.833,0 0,114.844 0,256 0,397.156 114.833,512 256,512 397.167,512 512,397.156 512,256 512,114.844 397.167,0 256,0 Z m 0,448 C 150.125,448 64,361.865 64,256 64,150.135 150.125,64 256,64 c 105.875,0 192,86.135 192,192 0,105.865 -86.125,192 -192,192 z"
               inkscape:connector-curvature="0" />
          </g>
        </g>
      </g>
      <g
         id="g3355"
         transform="matrix(0.04038551,0,0,0.0409026,199.76986,365.96452)" />
      <g
         id="g3357"
         transform="matrix(0.04038551,0,0,0.0409026,199.76986,365.96452)" />
      <g
         id="g3359"
         transform="matrix(0.04038551,0,0,0.0409026,199.76986,365.96452)" />
      <g
         id="g3361"
         transform="matrix(0.04038551,0,0,0.0409026,199.76986,365.96452)" />
      <g
         id="g3363"
         transform="matrix(0.04038551,0,0,0.0409026,199.76986,365.96452)" />
      <g
         id="g3365"
         transform="matrix(0.04038551,0,0,0.0409026,199.76986,365.96452)" />
      <g
         id="g3367"
         transform="matrix(0.04038551,0,0,0.0409026,199.76986,365.96452)" />
      <g
         id="g3369"
         transform="matrix(0.04038551,0,0,0.0409026,199.76986,365.96452)" />
      <g
         id="g3371"
         transform="matrix(0.04038551,0,0,0.0409026,199.76986,365.96452)" />
      <g
         id="g3373"
         transform="matrix(0.04038551,0,0,0.0409026,199.76986,365.96452)" />
      <g
         id="g3375"
         transform="matrix(0.04038551,0,0,0.0409026,199.76986,365.96452)" />
      <g
         id="g3377"
         transform="matrix(0.04038551,0,0,0.0409026,199.76986,365.96452)" />
      <g
         id="g3379"
         transform="matrix(0.04038551,0,0,0.0409026,199.76986,365.96452)" />
      <g
         id="g3381"
         transform="matrix(0.04038551,0,0,0.0409026,199.76986,365.96452)" />
      <g
         id="g3383"
         transform="matrix(0.04038551,0,0,0.0409026,199.76986,365.96452)" />
      <text
         sodipodi:linespacing="125%"
         id="text3415"
         y="384.50507"
         x="221.25"
         style="font-style:normal;font-variant:normal;font-weight:normal;font-stretch:normal;font-size:40px;line-height:125%;font-family:'EB Garamond';-inkscape-font-specification:'EB Garamond';letter-spacing:0px;word-spacing:0px;fill:#000000;fill-opacity:1;stroke:none;stroke-width:1px;stroke-linecap:butt;stroke-linejoin:miter;stroke-opacity:1"
         xml:space="preserve"><tspan
           y="384.50507"
           x="221.25"
           id="tspan3417"
           sodipodi:role="line">r</tspan></text>
      <g
         transform="matrix(0.06808036,0,0,0.06808036,163.69405,340.08691)"
         id="g3460">
        <g
           id="g3420">
          <path
             inkscape:connector-curvature="0"
             d="m 48,181.063 c 0,55.563 21.656,107.813 61,147.125 L 75.062,362.126 C 26.656,313.75 0,249.438 0,181.063 0,112.688 26.625,48.375 75,0.063 L 108.938,34 C 69.625,73.25 48,125.5 48,181.063 Z M 182.438,107.5 148.5,73.562 c -28.688,28.75 -44.5,66.938 -44.5,107.5 0,40.625 15.813,78.813 44.563,107.5 l 33.938,-33.938 c -19.688,-19.625 -30.5,-45.75 -30.5,-73.563 C 152,153.313 162.813,127.188 182.438,107.5 Z M 436.938,0 403,33.938 c 39.344,39.313 61,91.563 61,147.125 0,55.562 -21.625,107.813 -60.906,147.125 l 33.938,33.938 C 485.376,313.751 512.001,249.438 512.001,181.063 512,112.625 485.344,48.313 436.938,0 Z M 256,133.063 c -26.5,0 -48,21.5 -48,48 0,17.75 9.719,33.063 24,41.344 l 0,289.593 48,0 0,-289.562 c 14.281,-8.313 24,-23.625 24,-41.375 0,-26.5 -21.469,-48 -48,-48 z M 363.438,73.563 329.5,107.5 c 19.656,19.688 30.5,45.813 30.5,73.563 0,27.813 -10.812,53.938 -30.438,73.563 l 33.938,33.938 c 28.688,-28.688 44.5,-66.875 44.5,-107.5 0,-40.625 -15.812,-78.751 -44.562,-107.501 z"
             id="path3422" />
        </g>
        <g
           id="g3424" />
        <g
           id="g3426" />
        <g
           id="g3428" />
        <g
           id="g3430" />
        <g
           id="g3432" />
        <g
           id="g3434" />
        <g
           id="g3436" />
        <g
           id="g3438" />
        <g
           id="g3440" />
        <g
           id="g3442" />
        <g
           id="g3444" />
        <g
           id="g3446" />
        <g
           id="g3448" />
        <g
           id="g3450" />
        <g
           id="g3452" />
      </g>
    </g>
    <text
       xml:space="preserve"
       style="font-style:normal;font-variant:normal;font-weight:normal;font-stretch:normal;font-size:40px;line-height:125%;font-family:'EB Garamond';-inkscape-font-specification:'EB Garamond';letter-spacing:0px;word-spacing:0px;fill:#000000;fill-opacity:1;stroke:none;stroke-width:1px;stroke-linecap:butt;stroke-linejoin:miter;stroke-opacity:1"
       x="159.35713"
       y="411.11218"
       id="text3526"
       sodipodi:linespacing="125%"><tspan
         sodipodi:role="line"
         id="tspan3528"
         x="159.35713"
         y="411.11218">RS</tspan></text>
  </g>
</svg>
